<?xml version="1.0" encoding="UTF-8" standalone="no"?>
<!-- Created with Inkscape (http://www.inkscape.org/) -->

<svg
   width="15.456499mm"
   height="10.000027mm"
   viewBox="0 0 15.456499 10.000027"
   version="1.1"
   id="svg36287"
   inkscape:version="1.1.1 (3bf5ae0d25, 2021-09-20)"
   sodipodi:docname="le.svg"
   xmlns:inkscape="http://www.inkscape.org/namespaces/inkscape"
   xmlns:sodipodi="http://sodipodi.sourceforge.net/DTD/sodipodi-0.dtd"
   xmlns="http://www.w3.org/2000/svg"
   xmlns:svg="http://www.w3.org/2000/svg">
  <sodipodi:namedview
     id="namedview36289"
     pagecolor="#505050"
     bordercolor="#ffffff"
     borderopacity="1"
     inkscape:pageshadow="0"
     inkscape:pageopacity="0"
     inkscape:pagecheckerboard="1"
     inkscape:document-units="mm"
     showgrid="false"
     fit-margin-top="0"
     fit-margin-left="0"
     fit-margin-right="0"
     fit-margin-bottom="0"
     inkscape:zoom="5.9152637"
     inkscape:cx="12.425481"
     inkscape:cy="-28.147519"
     inkscape:window-width="1920"
     inkscape:window-height="1017"
     inkscape:window-x="-8"
     inkscape:window-y="-8"
     inkscape:window-maximized="1"
     inkscape:current-layer="layer1" />
  <defs
     id="defs36284" />
  <g
     inkscape:label="Layer 1"
     inkscape:groupmode="layer"
     id="layer1"
     transform="translate(-188.72115,-102.70722)">
    <g
       id="g30155"
       transform="translate(91.928192,37.333032)">
      <rect
         style="fill:#2d1650;stroke:none;stroke-width:1.32292;stroke-linecap:round;stroke-linejoin:round"
         id="rect30048"
         width="15.456499"
         height="10"
         x="96.792953"
         y="65.374184" />
      <path
         id="circle30050"
         style="fill:#ff6600;stroke-width:1.37953;stroke-linecap:round;stroke-linejoin:round"
         d="m 365.83203,247.08398 v 26.55469 a 18.888553,18.888553 0 0 0 12.48047,4.8125 18.888553,18.888553 0 0 0 18.88672,-18.88672 18.888553,18.888553 0 0 0 -4.72461,-12.48047 z m 45.70703,0 c 1.45689,3.88214 2.25977,8.08577 2.25977,12.47852 0,9.91727 -4.06454,18.87784 -10.61524,25.31641 h 1.91407 c 6.24529,-6.60641 10.08203,-15.51258 10.08203,-25.31641 0,-4.37998 -0.76904,-8.58071 -2.17188,-12.47852 z"
         transform="scale(0.26458333)" />
      <path
         id="circle30052"
         style="stroke-width:0.365001;stroke-linecap:round;stroke-linejoin:round"
         d="m 103.30768,68.676178 a 3.2127404,3.2127404 0 0 1 -3.21274,3.21274 3.2127404,3.2127404 0 0 1 -3.21274,-3.21274 3.2127404,3.2127404 0 0 1 3.21274,-3.21274 3.2127404,3.2127404 0 0 1 3.21274,3.21274 z" />
    </g>
  </g>
</svg>
