<?xml version="1.0" encoding="UTF-8" standalone="no"?>
<!-- Created with Inkscape (http://www.inkscape.org/) -->

<svg
   width="30"
   height="30.001284"
   viewBox="0 0 7.9375 7.9378395"
   version="1.1"
   id="svg5"
   inkscape:version="1.1.1 (3bf5ae0d25, 2021-09-20)"
   sodipodi:docname="span.svg"
   xmlns:inkscape="http://www.inkscape.org/namespaces/inkscape"
   xmlns:sodipodi="http://sodipodi.sourceforge.net/DTD/sodipodi-0.dtd"
   xmlns="http://www.w3.org/2000/svg"
   xmlns:svg="http://www.w3.org/2000/svg">
  <sodipodi:namedview
     id="namedview7"
     pagecolor="#505050"
     bordercolor="#ffffff"
     borderopacity="1"
     inkscape:pageshadow="0"
     inkscape:pageopacity="0"
     inkscape:pagecheckerboard="1"
     inkscape:document-units="mm"
     showgrid="false"
     inkscape:zoom="3.6203867"
     inkscape:cx="13.396359"
     inkscape:cy="12.291505"
     inkscape:window-width="1920"
     inkscape:window-height="1017"
     inkscape:window-x="-8"
     inkscape:window-y="-8"
     inkscape:window-maximized="1"
     inkscape:current-layer="path2451"
     fit-margin-top="0"
     fit-margin-left="0"
     fit-margin-right="0"
     fit-margin-bottom="0"
     units="px" />
  <defs
     id="defs2" />
  <g
     inkscape:label="Layer 1"
     inkscape:groupmode="layer"
     id="layer1"
     transform="translate(-5.1226047,-3.5588125)">
    <g
       id="path2451">
      <g
         id="g15607"
         transform="matrix(0.0943011,0,0,0.0943011,30.10435,43.671694)"
         style="stroke-width:10.6043">
        <g
           id="g15181"
           transform="translate(-84.959135,-100.66587)"
           style="stroke-width:10.6043">
          <path
             style="color:#000000;fill:#004455;stroke-width:10.6043;stroke-linecap:round;stroke-linejoin:round;-inkscape-stroke:none"
             d="m -132.05906,-260.97439 c 1.77044,0.39054 3.58379,0.61188 5.42969,0.66797 -1.15718,1.76897 -2.43693,3.44236 -3.95117,4.90039 -2.03539,-0.50465 -3.97499,-1.31335 -5.85742,-2.26367 1.57451,-0.97493 3.03841,-2.0766 4.3789,-3.30469 z"
             id="path3767" />
          <path
             style="color:#000000;fill:#004455;stroke-width:10.6043;stroke-linecap:round;stroke-linejoin:round;-inkscape-stroke:none"
             d="m -137.85984,-262.90812 c 1.36368,0.61861 2.76432,1.15293 4.21485,1.55859 -1.30504,1.11924 -2.69337,2.15217 -4.2129,3.0293 -1.52063,-0.8759 -2.90857,-1.90906 -4.21484,-3.02735 1.44964,-0.40692 2.85022,-0.94087 4.21289,-1.56054 z"
             id="path3761" />
          <path
             style="color:#000000;fill:#004455;stroke-width:10.6043;stroke-linecap:round;stroke-linejoin:round;-inkscape-stroke:none"
             d="m -110.1782,-264.77922 c -0.37223,2.70935 -1.06121,5.30226 -2.14844,7.70703 -2.40412,1.08689 -4.99654,1.77417 -7.70507,2.14649 0.18907,-0.30191 0.43568,-0.54449 0.61523,-0.85547 a 0.66152613,0.66152613 0 0 0 0.002,-0.002 c 1.07475,-1.86523 1.8272,-3.87248 2.4668,-5.91016 2.03765,-0.63955 4.04495,-1.39406 5.91016,-2.46875 a 0.66152613,0.66152613 0 0 0 0.002,0 c 0.3118,-0.18002 0.55475,-0.4276 0.85742,-0.61719 z"
             id="path3759" />
          <path
             style="color:#000000;fill:#004455;stroke-width:10.6043;stroke-linecap:round;stroke-linejoin:round;-inkscape-stroke:none"
             d="m -142.44187,-265.50773 c 0.89902,0.62207 1.81751,1.20866 2.7793,1.72656 -1.20328,0.482 -2.35035,1.0838 -3.61719,1.39648 -0.94137,-0.90317 -1.63372,-1.99753 -2.43555,-3.01562 1.0932,0.0314 2.18262,-0.0169 3.27344,-0.10742 z"
             id="path3755" />
          <path
             style="color:#000000;fill:#004455;stroke-width:10.6043;stroke-linecap:round;stroke-linejoin:round;-inkscape-stroke:none"
             d="m -102.92039,-271.19601 c 0.0687,2.78983 -0.17061,5.56351 -0.9121,8.23047 -1.93913,1.97612 -4.22103,3.5686 -6.67188,4.90429 0.94114,-2.43787 1.4905,-5.04324 1.75,-7.74414 2.21092,-1.57603 4.19242,-3.35518 5.83398,-5.39062 z"
             id="path3727" />
          <path
             style="color:#000000;fill:#004455;stroke-width:10.6043;stroke-linecap:round;stroke-linejoin:round;-inkscape-stroke:none"
             d="m -149.6782,-272.2292 c 0.26474,0.22127 0.50015,0.47112 0.77344,0.6836 0.20702,0.26514 0.44875,0.49489 0.66406,0.75195 -0.34064,-0.13697 -0.67709,-0.27769 -1.01172,-0.42773 -0.14973,-0.33313 -0.28901,-0.66872 -0.42578,-1.00782 z"
             id="path3721" />
          <path
             style="color:#000000;fill:#004455;stroke-width:10.6043;stroke-linecap:round;stroke-linejoin:round;-inkscape-stroke:none"
             d="m -98.1196,-279.93495 c 0.41532,2.6415 0.55973,5.32507 0.20312,8.01562 -1.03697,2.51392 -2.50395,4.7715 -4.1875,6.85547 0.48734,-2.57879 0.66596,-5.20477 0.44922,-7.84961 1.50963,-2.1816 2.66795,-4.54519 3.53516,-7.02148 z"
             id="path3701" />
        </g>
        <g
           id="g15214"
           transform="translate(-84.959135,-100.66587)"
           style="stroke-width:10.6043">
          <path
             style="color:#000000;fill:#6600ff;stroke-width:10.6043;stroke-linecap:round;stroke-linejoin:round;-inkscape-stroke:none"
             d="m -155.41843,-246.84921 c 2.57859,0.48705 5.20307,0.66612 7.84765,0.44922 2.18164,1.50957 4.54323,2.66801 7.01954,3.53515 -2.6417,0.41524 -5.32491,0.55994 -8.01563,0.20313 -2.51265,-1.03663 -4.76845,-2.5049 -6.85156,-4.1875 z"
             id="path3791" />
          <path
             style="color:#000000;fill:#6600ff;stroke-width:10.6043;stroke-linecap:round;stroke-linejoin:round;-inkscape-stroke:none"
             d="m -137.8696,-248.9957 c 2.46901,1.12592 4.99995,1.95348 7.58203,2.35743 -2.38131,1.45385 -4.90222,2.63117 -7.58203,3.32226 -2.68004,-0.69116 -5.20057,-1.86822 -7.58204,-3.32226 2.58208,-0.40395 5.11302,-1.23151 7.58204,-2.35743 z"
             id="path3789" />
          <path
             style="color:#000000;fill:#6600ff;stroke-width:10.6043;stroke-linecap:round;stroke-linejoin:round;-inkscape-stroke:none"
             d="m -163.71726,-249.69496 c 1.77495,0.93668 3.61867,1.70903 5.53711,2.26562 1.43851,1.38009 3.02385,2.59114 4.71875,3.65821 -1.86012,-0.60018 -3.68954,-1.37941 -5.45117,-2.39649 -1.76346,-1.01813 -3.3537,-2.21488 -4.80469,-3.52734 z"
             id="path3785" />
          <path
             style="color:#000000;fill:#6600ff;stroke-width:10.6043;stroke-linecap:round;stroke-linejoin:round;-inkscape-stroke:none"
             d="m -130.2114,-254.03675 c 2.08446,0.46498 4.20084,0.8184 6.35351,0.82031 0.35992,-1e-5 0.69399,-0.0926 1.05079,-0.10547 -1.67722,2.16025 -3.56876,4.06069 -5.71289,5.59961 -2.62674,-0.26078 -5.21508,-0.96157 -7.74805,-1.99414 0.31538,-0.16725 0.65122,-0.25366 0.96289,-0.43359 a 0.66152613,0.66152613 0 0 0 0.002,0 c 1.8635,-1.07804 3.51896,-2.44171 5.0918,-3.88672 z"
             id="path3781" />
          <path
             style="color:#000000;fill:#6600ff;stroke-width:10.6043;stroke-linecap:round;stroke-linejoin:round;-inkscape-stroke:none"
             d="m -118.57859,-261.19328 c -0.57048,1.61929 -1.11883,3.25124 -1.98242,4.75 -0.35556,0.61581 -0.82495,1.11501 -1.21875,1.69336 -0.69792,0.052 -1.36492,0.20892 -2.07617,0.20898 -1.73027,-0.001 -3.41935,-0.34237 -5.10742,-0.6582 1.49886,-1.54802 2.85406,-3.23614 3.98632,-5.08789 2.16923,-0.0548 4.30892,-0.38236 6.39844,-0.90625 z"
             id="path3763" />
          <path
             style="color:#000000;fill:#6600ff;stroke-width:10.6043;stroke-linecap:round;stroke-linejoin:round;-inkscape-stroke:none"
             d="m -116.98093,-268.91643 c -0.1176,2.1105 -0.38844,4.19899 -0.97071,6.21875 -2.0197,0.58222 -4.10832,0.85312 -6.21875,0.97071 0.8764,-1.63043 1.59509,-3.31612 2.14258,-5.04883 1.73187,-0.54741 3.41722,-1.26462 5.04688,-2.14063 z"
             id="path3735" />
          <path
             style="color:#000000;fill:#6600ff;stroke-width:10.6043;stroke-linecap:round;stroke-linejoin:round;-inkscape-stroke:none"
             d="m -117.35007,-275.63374 c 0.31579,1.68921 0.51648,3.40645 0.51562,5.16015 -1.51874,0.87803 -3.10722,1.56537 -4.72851,2.13672 0.37333,-1.45899 0.61033,-2.93755 0.75586,-4.42773 1.2181,-0.87133 2.37991,-1.81603 3.45703,-2.86914 z"
             id="path3711" />
          <path
             style="color:#000000;fill:#6600ff;stroke-width:10.6043;stroke-linecap:round;stroke-linejoin:round;-inkscape-stroke:none"
             d="m -119.03953,-280.81405 c 0.48118,1.2032 1.08261,2.35054 1.39454,3.61719 -0.90302,0.94047 -1.99788,1.63254 -3.01563,2.43359 0.0319,-1.09141 -0.0159,-2.18042 -0.10547,-3.26953 0.62263,-0.89908 1.20816,-1.81934 1.72656,-2.78125 z"
             id="path3695" />
          <path
             style="color:#000000;fill:#6600ff;stroke-width:10.6043;stroke-linecap:round;stroke-linejoin:round;-inkscape-stroke:none"
             d="m -121.01414,-285.06643 c 0.48131,0.78799 0.84452,1.61736 1.2461,2.44922 -0.4014,0.83149 -0.76308,1.66153 -1.24414,2.44921 -0.12847,-0.82078 -0.27225,-1.63906 -0.47071,-2.44921 0.19843,-0.81005 0.34031,-1.62855 0.46875,-2.44922 z"
             id="path3683" />
          <path
             style="color:#000000;fill:#6600ff;stroke-width:10.6043;stroke-linecap:round;stroke-linejoin:round;-inkscape-stroke:none"
             d="m -122.97312,-287.65652 c 0.22513,0.28766 0.44666,0.57522 0.66016,0.8711 -0.037,0.36349 -0.0855,0.72375 -0.13672,1.08593 -0.11618,-0.31793 -0.19278,-0.6462 -0.32031,-0.96093 -0.0471,-0.33782 -0.14455,-0.66121 -0.20313,-0.9961 z"
             id="path3677" />
        </g>
        <g
           id="g15223"
           transform="translate(-84.959135,-100.66587)"
           style="stroke-width:10.6043">
          <path
             style="color:#000000;fill:#220055;stroke-width:10.6043;stroke-linecap:round;stroke-linejoin:round;-inkscape-stroke:none"
             d="m -170.95164,-260.41761 c 1.98886,1.71071 4.17255,3.17804 6.57032,4.3125 1.13478,2.39929 2.60275,4.58427 4.31445,6.57422 -2.49713,-0.96195 -4.89582,-2.18187 -7.04883,-3.83789 -1.65634,-2.15342 -2.87394,-4.55118 -3.83594,-7.04883 z"
             id="path3771" />
          <path
             style="color:#000000;fill:#220055;stroke-width:10.6043;stroke-linecap:round;stroke-linejoin:round;-inkscape-stroke:none"
             d="m -172.81687,-271.19401 c 1.64123,2.03466 3.62378,3.81315 5.83398,5.38867 0.2595,2.70086 0.80693,5.3063 1.74805,7.74414 -2.44991,-1.33534 -4.72941,-2.92897 -6.66797,-4.90429 -0.74145,-2.66655 -0.98256,-5.4391 -0.91406,-8.22852 z"
             id="path3729" />
          <path
             style="color:#000000;fill:#220055;stroke-width:10.6043;stroke-linecap:round;stroke-linejoin:round;-inkscape-stroke:none"
             d="m -170.76804,-281.01327 c 0.167,0.31485 0.25395,0.6498 0.43359,0.96094 1.07766,1.86622 2.44117,3.52635 3.88672,5.10156 -0.46387,2.08206 -0.81645,4.19564 -0.81836,6.3457 1e-5,0.35992 0.0926,0.69399 0.10547,1.05079 -2.1603,-1.6772 -4.0626,-3.56876 -5.60156,-5.7129 0.26067,-2.62561 0.96235,-5.21412 1.99414,-7.74609 z"
             id="path3693" />
          <path
             style="color:#000000;fill:#220055;stroke-width:10.6043;stroke-linecap:round;stroke-linejoin:round;-inkscape-stroke:none"
             d="m -160.18601,-293.85235 c 0.057,1.8518 0.27637,3.67162 0.66992,5.44727 -1.22566,1.34065 -2.32611,2.80484 -3.29883,4.3789 -0.95312,-1.88827 -1.76096,-3.83497 -2.26562,-5.87695 1.45667,-1.51334 3.1273,-2.79233 4.89453,-3.94922 z"
             id="path3653" />
          <path
             style="color:#000000;fill:#220055;stroke-width:10.6043;stroke-linecap:round;stroke-linejoin:round;-inkscape-stroke:none"
             d="m -154.18601,-296.8935 c -0.37282,1.46008 -0.60919,2.94044 -0.75391,4.43164 -1.2181,0.87203 -2.38006,1.81722 -3.45703,2.87109 -0.31679,-1.68971 -0.51766,-3.40966 -0.51758,-5.16406 1.51876,-0.87895 3.10704,-1.56653 4.72852,-2.13867 z"
             id="path3643" />
          <path
             style="color:#000000;fill:#220055;stroke-width:10.6043;stroke-linecap:round;stroke-linejoin:round;-inkscape-stroke:none"
             d="m -148.84617,-298.0244 c -0.57359,0.92958 -1.07582,1.89833 -1.54297,2.88671 -0.99206,0.4689 -1.96172,0.97466 -2.89453,1.55079 0.1842,-1.28352 0.23689,-2.57814 0.59961,-3.83204 1.25579,-0.36457 2.55224,-0.42004 3.83789,-0.60546 z"
             id="path3633" />
          <path
             style="color:#000000;fill:#220055;fill-opacity:1;stroke-width:10.6043;stroke-linecap:round;stroke-linejoin:round;-inkscape-stroke:none"
             d="m -142.03757,-298.17284 c 0.36347,0.037 0.72378,0.0835 1.08593,0.13476 -0.31696,0.11584 -0.64324,0.19319 -0.95703,0.32032 -0.33887,0.0472 -0.66407,0.14435 -1,0.20312 0.2874,-0.22491 0.57549,-0.44489 0.8711,-0.6582 z"
             id="path3629" />
        </g>
        <g
           id="g15172"
           transform="translate(-84.959135,-100.66587)"
           style="stroke-width:10.6043">
          <path
             style="color:#000000;fill:#00ccff;stroke-width:10.6043;stroke-linecap:round;stroke-linejoin:round;-inkscape-stroke:none"
             d="m -96.43406,-288.53547 c 0.41022,1.91083 0.6504,3.884 0.65039,5.91797 1e-5,2.03396 -0.24017,4.00714 -0.65039,5.91796 -0.0767,-2.00257 -0.33023,-3.98101 -0.80664,-5.91796 0.47644,-1.93698 0.72998,-3.91538 0.80664,-5.91797 z"
             id="path3673" />
          <path
             style="color:#000000;fill:#00ccff;stroke-width:10.6043;stroke-linecap:round;stroke-linejoin:round;-inkscape-stroke:none"
             d="m -148.24851,-294.43061 c -0.21549,0.25749 -0.45885,0.48636 -0.66602,0.75195 -0.27055,0.21072 -0.50346,0.45839 -0.76562,0.67773 0.13617,-0.33777 0.27479,-0.67205 0.42383,-1.0039 0.33328,-0.1497 0.66855,-0.28906 1.00781,-0.42578 z"
             id="path3647" />
          <path
             style="color:#000000;fill:#00ccff;stroke-width:10.6043;stroke-linecap:round;stroke-linejoin:round;-inkscape-stroke:none"
             d="m -145.07664,-298.55175 c 0.3025,-0.002 0.59795,0.10387 0.9004,0.11133 -0.64682,0.52185 -1.28414,1.05562 -1.88672,1.63281 -0.79977,0.23293 -1.57948,0.51773 -2.35352,0.81641 0.44169,-0.81059 0.97856,-1.53925 1.49805,-2.30274 0.61878,-0.0458 1.22165,-0.25308 1.84179,-0.25781 z"
             id="path3625" />
          <path
             style="color:#000000;fill:#00ccff;stroke-width:10.6043;stroke-linecap:round;stroke-linejoin:round;-inkscape-stroke:none"
             d="m -102.10398,-300.17089 c 1.68252,2.08258 3.14872,4.33759 4.18555,6.84961 0.35767,2.6928 0.21443,5.37772 -0.20117,8.02149 -0.86717,-2.47628 -2.02557,-4.83989 -3.53516,-7.02149 0.21677,-2.64486 0.0381,-5.27078 -0.44922,-7.84961 z"
             id="path3623" />
          <path
             style="color:#000000;fill:#00ccff;stroke-width:10.6043;stroke-linecap:round;stroke-linejoin:round;-inkscape-stroke:none"
             d="m -143.28757,-302.8429 c 1.26622,0.31182 2.41239,0.91357 3.61523,1.39453 -0.96184,0.51839 -1.88028,1.10591 -2.7793,1.72851 -1.0897,-0.0896 -2.17949,-0.13747 -3.27148,-0.10547 0.80169,-1.01874 1.49418,-2.11377 2.43555,-3.01757 z"
             id="path3611" />
          <path
             style="color:#000000;fill:#00ccff;stroke-width:10.6043;stroke-linecap:round;stroke-linejoin:round;-inkscape-stroke:none"
             d="m -137.8696,-306.90745 c 1.51919,0.87597 2.90785,1.9094 4.21289,3.02735 -1.44999,0.40619 -2.84978,0.94152 -4.21289,1.56054 -1.3634,-0.6191 -2.76262,-1.1524 -4.21289,-1.55859 1.30554,-1.11864 2.69297,-2.15286 4.21289,-3.0293 z"
             id="path3601" />
          <path
             style="color:#000000;fill:#00ccff;stroke-width:10.6043;stroke-linecap:round;stroke-linejoin:round;-inkscape-stroke:none"
             d="m -110.50242,-307.17307 c 2.44943,1.33511 4.7297,2.92749 6.66797,4.90234 0.74227,2.66825 0.98284,5.44113 0.91406,8.23242 -1.64152,-2.03544 -3.62311,-3.81457 -5.83398,-5.39062 -0.25945,-2.7009 -0.80695,-5.30626 -1.74805,-7.74414 z"
             id="path3599" />
          <path
             style="color:#000000;fill:#00ccff;stroke-width:10.6043;stroke-linecap:round;stroke-linejoin:round;-inkscape-stroke:none"
             d="m -130.57859,-309.82542 c 1.51342,1.45753 2.79256,3.13027 3.94922,4.89844 -1.84991,0.0563 -3.66734,0.2778 -5.44141,0.66992 -1.34029,-1.22652 -2.80502,-2.32719 -4.3789,-3.30078 1.88637,-0.95336 3.83098,-1.76192 5.87109,-2.26758 z"
             id="path3591" />
          <path
             style="color:#000000;fill:#00ccff;stroke-width:10.6043;stroke-linecap:round;stroke-linejoin:round;-inkscape-stroke:none"
             d="m -120.03171,-310.30789 c 2.70912,0.3724 5.30246,1.05922 7.70703,2.14649 1.08751,2.40517 1.77422,4.99717 2.14648,7.70703 -0.30266,-0.18959 -0.54563,-0.43717 -0.85742,-0.61719 -1.86586,-1.07511 -3.87565,-1.82909 -5.91406,-2.46875 -0.63948,-2.03683 -1.39056,-4.04565 -2.46485,-5.91016 -0.17998,-0.31173 -0.42763,-0.55481 -0.61718,-0.85742 z"
             id="path3587" />
          <path
             style="color:#000000;fill:#00ccff;stroke-width:10.6043;stroke-linecap:round;stroke-linejoin:round;-inkscape-stroke:none"
             d="m -123.85789,-310.69265 c 0.71194,1e-5 1.37956,0.15699 2.07813,0.20898 0.3938,0.57836 0.8632,1.07753 1.21875,1.69336 0.86353,1.49872 1.41198,3.13077 1.98242,4.75 -2.09022,-0.52408 -4.23042,-0.85159 -6.40039,-0.90625 -1.13198,-1.85129 -2.48401,-3.54017 -3.98242,-5.08789 1.68741,-0.31553 3.37393,-0.65671 5.10351,-0.6582 z"
             id="path3583" />
        </g>
        <g
           id="g15193"
           transform="translate(-84.959135,-100.66587)"
           style="stroke-width:10.6043">
          <path
             style="color:#000000;fill:#6600ff;stroke-width:10.6043;stroke-linecap:round;stroke-linejoin:round;-inkscape-stroke:none"
             d="m -142.90476,-267.71713 c 0.33945,0.0592 0.66732,0.1597 1.00977,0.20703 0.31244,0.1264 0.63752,0.20316 0.95312,0.31836 -0.36332,0.0517 -0.7252,0.0974 -1.08984,0.13477 -0.29641,-0.21376 -0.58489,-0.43472 -0.87305,-0.66016 z"
             id="path3741" />
          <path
             style="color:#000000;fill:#6600ff;stroke-width:10.6043;stroke-linecap:round;stroke-linejoin:round;-inkscape-stroke:none"
             d="m -148.41257,-269.23479 c 0.77551,0.29874 1.55613,0.58367 2.35742,0.81641 0.60183,0.57602 1.23886,1.10806 1.88476,1.62891 -0.92244,0.0233 -1.82157,-0.077 -2.74218,-0.14453 -0.51963,-0.76322 -1.05814,-1.49047 -1.5,-2.30079 z"
             id="path3733" />
          <path
             style="color:#000000;fill:#6600ff;stroke-width:10.6043;stroke-linecap:round;stroke-linejoin:round;-inkscape-stroke:none"
             d="m -153.27195,-271.62961 c 0.92982,0.57298 1.89817,1.0745 2.88672,1.54102 0.46765,0.98873 0.97074,1.95688 1.54492,2.88672 -1.28267,-0.18416 -2.57698,-0.23519 -3.83008,-0.59766 -0.36367,-1.25276 -0.41616,-2.54756 -0.60156,-3.83008 z"
             id="path3725" />
          <path
             style="color:#000000;fill:#6600ff;stroke-width:10.6043;stroke-linecap:round;stroke-linejoin:round;-inkscape-stroke:none"
             d="m -158.39109,-275.62204 c 1.07806,1.05286 2.2419,1.99826 3.46094,2.86914 0.14616,1.49 0.38389,2.969 0.75781,4.42773 -1.6222,-0.57068 -3.21074,-1.25714 -4.73047,-2.13476 -0.002,-1.75418 0.19657,-3.47234 0.51172,-5.16211 z"
             id="path3713" />
          <path
             style="color:#000000;fill:#6600ff;stroke-width:10.6043;stroke-linecap:round;stroke-linejoin:round;-inkscape-stroke:none"
             d="m -162.81492,-281.18715 c 0.97498,1.57471 2.0765,3.04023 3.30469,4.38086 -0.39134,1.77409 -0.61053,3.59162 -0.66601,5.44141 -1.76989,-1.15901 -3.44413,-2.44056 -4.90235,-3.95703 0.50472,-2.0375 1.31239,-3.98095 2.26367,-5.86524 z"
             id="path3689" />
          <path
             style="color:#000000;fill:#6600ff;stroke-width:10.6043;stroke-linecap:round;stroke-linejoin:round;-inkscape-stroke:none"
             d="m -166.07078,-288.60597 c 0.59042,2.07403 1.37652,4.09162 2.41407,6 -1.03537,1.90437 -1.82001,3.91885 -2.41016,5.98829 -1.11671,-1.30507 -2.25569,-2.59706 -3.12109,-4.09571 -0.35592,-0.61646 -0.55319,-1.27341 -0.85743,-1.90429 0.30409,-0.63054 0.50172,-1.28622 0.85743,-1.90235 0.86475,-1.49472 2.00231,-2.78411 3.11718,-4.08594 z"
             id="path3669" />
          <path
             style="color:#000000;fill:#6600ff;stroke-width:10.6043;stroke-linecap:round;stroke-linejoin:round;-inkscape-stroke:none"
             d="m -167.16062,-297.68065 c -0.0129,0.3568 -0.10547,0.69086 -0.10547,1.05078 1.7e-4,2.15414 0.35055,4.27323 0.81445,6.35937 -1.44319,1.57149 -2.80586,3.22638 -3.88281,5.08789 -0.17963,0.31114 -0.2666,0.64609 -0.43359,0.96094 -1.03146,-2.53119 -1.73333,-5.11934 -1.99414,-7.74414 1.53904,-2.14434 3.44108,-4.03752 5.60156,-5.71484 z"
             id="path3637" />
          <path
             style="color:#000000;fill:#6600ff;stroke-width:10.6043;stroke-linecap:round;stroke-linejoin:round;-inkscape-stroke:none"
             d="m -165.23484,-307.17307 c -0.9411,2.43788 -1.48859,5.04324 -1.74805,7.74414 -2.21015,1.57554 -4.1928,3.35401 -5.83398,5.38867 -0.0686,-2.79064 0.17197,-5.56284 0.91406,-8.23047 1.93831,-1.97486 4.2185,-3.56724 6.66797,-4.90234 z"
             id="path3597" />
          <path
             style="color:#000000;fill:#6600ff;stroke-width:10.6043;stroke-linecap:round;stroke-linejoin:round;-inkscape-stroke:none"
             d="m -160.06492,-315.70242 c -1.71213,1.99025 -3.1814,4.17445 -4.3164,6.57422 -2.39777,1.13446 -4.58146,2.60179 -6.57032,4.3125 0.96197,-2.49741 2.17976,-4.89559 3.83594,-7.04883 2.15354,-1.65641 4.55299,-2.87589 7.05078,-3.83789 z"
             id="path3575" />
          <path
             style="color:#000000;fill:#6600ff;stroke-width:10.6043;stroke-linecap:round;stroke-linejoin:round;-inkscape-stroke:none"
             d="m -153.4614,-321.46218 c -1.69647,1.06807 -3.28308,2.28045 -4.72266,3.66211 -1.91697,0.55646 -3.75954,1.32572 -5.5332,2.26171 1.45101,-1.31248 3.04121,-2.5092 4.80469,-3.52734 1.76165,-1.0171 3.59102,-1.79631 5.45117,-2.39648 z"
             id="path3563" />
        </g>
        <g
           id="g15202"
           transform="translate(-84.959135,-100.66587)"
           style="stroke-width:10.6043">
          <path
             style="color:#000000;fill:#220055;stroke-width:10.6043;stroke-linecap:round;stroke-linejoin:round;-inkscape-stroke:none"
             d="m -122.44968,-279.53456 c 0.0512,0.36217 0.0997,0.72245 0.13672,1.08593 -0.213,0.29519 -0.43363,0.58214 -0.65821,0.86914 0.059,-0.33805 0.15787,-0.66482 0.20508,-1.00585 0.12584,-0.31094 0.20165,-0.63516 0.31641,-0.94922 z"
             id="path3703" />
          <path
             style="color:#000000;fill:#220055;stroke-width:10.6043;stroke-linecap:round;stroke-linejoin:round;-inkscape-stroke:none"
             d="m -120.66062,-290.47149 c 1.01827,0.8014 2.1122,1.49459 3.01563,2.43555 -0.31201,1.26662 -0.91329,2.41401 -1.39454,3.61718 -0.51872,-0.9626 -1.10541,-1.88156 -1.72851,-2.78125 0.0897,-1.0898 0.1394,-2.17938 0.10742,-3.27148 z"
             id="path3659" />
          <path
             style="color:#000000;fill:#220055;stroke-width:10.6043;stroke-linecap:round;stroke-linejoin:round;-inkscape-stroke:none"
             d="m -121.56296,-296.8955 c 1.62115,0.57129 3.20989,1.25686 4.72851,2.13477 9e-4,1.75378 -0.19984,3.47086 -0.51562,5.16015 -1.07713,-1.05307 -2.23893,-1.99784 -3.45703,-2.86914 -0.14549,-1.48956 -0.38276,-2.96738 -0.75586,-4.42578 z"
             id="path3641" />
          <path
             style="color:#000000;fill:#220055;stroke-width:10.6043;stroke-linecap:round;stroke-linejoin:round;-inkscape-stroke:none"
             d="m -124.17039,-303.50701 c 2.11003,0.11755 4.19941,0.3887 6.21875,0.97071 0.58222,2.0197 0.85312,4.10832 0.97071,6.21875 -1.62966,-0.87596 -3.31502,-1.59325 -5.04688,-2.14063 -0.54753,-1.73272 -1.26614,-3.4184 -2.14258,-5.04883 z"
             id="path3607" />
          <path
             style="color:#000000;fill:#220055;stroke-width:10.6043;stroke-linecap:round;stroke-linejoin:round;-inkscape-stroke:none"
             d="m -128.51999,-317.51101 c 2.1442,1.53899 4.03564,3.43925 5.71289,5.59961 -0.3568,-0.0129 -0.69087,-0.10547 -1.05079,-0.10547 -2.15366,0.002 -4.27011,0.35497 -6.35546,0.82031 -1.57246,-1.44454 -3.22688,-2.80895 -5.08985,-3.88672 -0.31166,-0.17994 -0.6475,-0.26633 -0.96289,-0.43359 2.53214,-1.03197 5.12028,-1.73342 7.7461,-1.99414 z"
             id="path3573" />
          <path
             style="color:#000000;fill:#220055;stroke-width:10.6043;stroke-linecap:round;stroke-linejoin:round;-inkscape-stroke:none"
             d="m -137.8696,-321.91726 c 2.67956,0.69105 5.20092,1.86859 7.58203,3.32226 -2.58154,0.4039 -5.11156,1.23186 -7.58008,2.35743 -2.46912,-1.12602 -5.00178,-1.95346 -7.58399,-2.35743 2.38148,-1.45409 4.90197,-2.63107 7.58204,-3.32226 z"
             id="path3561" />
          <path
             style="color:#000000;fill:#220055;stroke-width:10.6043;stroke-linecap:round;stroke-linejoin:round;-inkscape-stroke:none"
             d="m -142.91843,-322.76492 c 0.80133,0.0565 1.57556,0.27205 2.36719,0.39649 -2.47644,0.86721 -4.83977,2.02544 -7.02149,3.53515 -2.64465,-0.21676 -5.26903,-0.036 -7.84766,0.45117 2.08209,-1.68213 4.33437,-3.15074 6.84571,-4.1875 1.88704,-0.25077 3.78084,-0.32761 5.65625,-0.19531 z"
             id="path3557" />
        </g>
        <g
           id="g15267"
           transform="translate(-84.959135,-100.66587)"
           style="fill:#1c1c24;stroke-width:10.6043">
          <path
             style="color:#000000;fill:#1c1c24;stroke-width:10.6043;stroke-linecap:round;stroke-linejoin:round;-inkscape-stroke:none"
             d="m -137.8696,-241.98788 c 1.93838,0.47677 3.91975,0.73021 5.92382,0.80664 -1.91271,0.41107 -3.88769,0.65235 -5.92382,0.65234 -2.03617,0 -4.01109,-0.24126 -5.92383,-0.65234 2.00466,-0.0763 3.98488,-0.32974 5.92383,-0.80664 z"
             id="path3795" />
          <path
             style="color:#000000;fill:#1c1c24;stroke-width:10.6043;stroke-linecap:round;stroke-linejoin:round;-inkscape-stroke:none"
             d="m -120.31882,-246.84921 c -2.0831,1.68259 -4.33895,3.15087 -6.85157,4.1875 -2.69107,0.35685 -5.37555,0.21227 -8.01757,-0.20313 2.47641,-0.86717 4.83977,-2.02548 7.02148,-3.53515 2.64407,0.21671 5.26956,0.0377 7.84766,-0.44922 z"
             id="path3793" />
          <path
             style="color:#000000;fill:#1c1c24;stroke-width:10.6043;stroke-linecap:round;stroke-linejoin:round;-inkscape-stroke:none"
             d="m -112.0239,-249.69296 c -1.45045,1.31169 -3.04014,2.50776 -4.80274,3.52539 -1.7622,1.01741 -3.59041,1.79625 -5.45117,2.39648 1.69536,-1.06724 3.28185,-2.27778 4.72071,-3.6582 1.91705,-0.55619 3.75941,-1.32793 5.5332,-2.26367 z"
             id="path3787" />
          <path
             style="color:#000000;fill:#1c1c24;stroke-width:10.6043;stroke-linecap:round;stroke-linejoin:round;-inkscape-stroke:none"
             d="m -113.31296,-255.2516 c -1.33579,2.45129 -2.92984,4.73246 -4.90625,6.67188 -2.66697,0.7415 -5.44063,0.98276 -8.23047,0.91406 2.03544,-1.64152 3.81457,-3.62312 5.39062,-5.83398 2.70173,-0.25958 5.30757,-0.81033 7.7461,-1.75196 z"
             id="path3779" />
          <path
             style="color:#000000;fill:#1c1c24;stroke-width:10.6043;stroke-linecap:round;stroke-linejoin:round;-inkscape-stroke:none"
             d="m -104.78562,-260.41761 c -0.96021,2.49301 -2.17416,4.8869 -3.82617,7.03711 -2.15697,1.66108 -4.55778,2.88567 -7.06055,3.84961 1.71154,-1.98966 3.17967,-4.17334 4.31445,-6.57227 2.39865,-1.13465 4.58279,-2.60317 6.57227,-4.31445 z"
             id="path3773" />
          <path
             style="color:#000000;fill:#1c1c24;stroke-width:10.6043;stroke-linecap:round;stroke-linejoin:round;-inkscape-stroke:none"
             d="m -133.27781,-265.51173 c 1.09044,0.0893 2.18074,0.1379 3.27344,0.10547 -0.8008,1.01874 -1.49318,2.1136 -2.43359,3.01758 -1.26795,-0.31166 -2.41666,-0.91331 -3.6211,-1.39453 0.9621,-0.51919 1.8821,-1.10504 2.78125,-1.72852 z"
             id="path3753" />
          <path
             style="color:#000000;fill:#1c1c24;stroke-width:10.6043;stroke-linecap:round;stroke-linejoin:round;-inkscape-stroke:none"
             d="m -137.86179,-266.22657 c 0.81009,0.19819 1.62852,0.34053 2.44922,0.46875 -0.78679,0.48115 -1.61473,0.84445 -2.44532,1.24609 -0.8328,-0.40157 -1.66423,-0.76267 -2.45312,-1.24414 0.82053,-0.12898 1.63935,-0.27176 2.44922,-0.4707 z"
             id="path3751" />
          <path
             style="color:#000000;fill:#1c1c24;stroke-width:10.6043;stroke-linecap:round;stroke-linejoin:round;-inkscape-stroke:none"
             d="m -123.58835,-266.30887 c -0.57133,1.62137 -1.2587,3.2097 -2.13672,4.72851 -1.74975,9.1e-4 -3.4648,-0.19932 -5.15039,-0.51367 1.05222,-1.07741 1.99672,-2.24076 2.86718,-3.45898 1.48756,-0.14579 2.96349,-0.38306 4.41993,-0.75586 z"
             id="path3747" />
          <path
             style="color:#000000;fill:#1c1c24;stroke-width:10.6043;stroke-linecap:round;stroke-linejoin:round;-inkscape-stroke:none"
             d="m -176.71335,-267.02567 c 1.06825,1.69726 2.28001,3.28441 3.66211,4.72461 0.55614,1.91627 1.32436,3.75815 2.25976,5.53125 -1.31171,-1.45046 -2.50775,-3.04012 -3.52539,-4.80274 -1.01743,-1.76224 -1.79625,-3.59233 -2.39648,-5.45312 z"
             id="path3745" />
          <path
             style="color:#000000;fill:#1c1c24;stroke-width:10.6043;stroke-linecap:round;stroke-linejoin:round;-inkscape-stroke:none"
             d="m -99.0239,-267.02767 c -0.6003,1.86143 -1.38067,3.69225 -2.39844,5.45507 -1.01763,1.7626 -2.21175,3.3523 -3.52344,4.80274 0.9354,-1.7731 1.70362,-3.61498 2.25977,-5.53125 1.38249,-1.44064 2.59365,-3.02872 3.66211,-4.72656 z"
             id="path3743" />
          <path
             style="color:#000000;fill:#1c1c24;stroke-width:10.6043;stroke-linecap:round;stroke-linejoin:round;-inkscape-stroke:none"
             d="m -132.81882,-267.72113 c -0.28864,0.22623 -0.57808,0.44759 -0.875,0.66211 -0.36416,-0.037 -0.72505,-0.0835 -1.08789,-0.13477 0.3231,-0.11827 0.65678,-0.19617 0.97656,-0.32617 0.33428,-0.0468 0.65492,-0.14307 0.98633,-0.20117 z"
             id="path3739" />
          <path
             style="color:#000000;fill:#1c1c24;stroke-width:10.6043;stroke-linecap:round;stroke-linejoin:round;-inkscape-stroke:none"
             d="m -127.31296,-269.24479 c -0.44102,0.81051 -0.97732,1.53924 -1.4961,2.30273 -0.92192,0.0686 -1.82226,0.17101 -2.74609,0.14844 0.64725,-0.52282 1.28578,-1.05649 1.88867,-1.63476 0.79973,-0.23318 1.57953,-0.51748 2.35352,-0.81641 z"
             id="path3731" />
          <path
             style="color:#000000;fill:#1c1c24;stroke-width:10.6043;stroke-linecap:round;stroke-linejoin:round;-inkscape-stroke:none"
             d="m -122.46335,-271.64131 c -0.18485,1.2827 -0.23645,2.57707 -0.59961,3.83008 -1.24982,0.36236 -2.54093,0.41467 -3.82032,0.59961 0.57367,-0.93083 1.076,-1.89897 1.54297,-2.88867 0.98577,-0.4663 1.94971,-0.9688 2.87696,-1.54102 z"
             id="path3723" />
          <path
             style="color:#000000;fill:#1c1c24;stroke-width:10.6043;stroke-linecap:round;stroke-linejoin:round;-inkscape-stroke:none"
             d="m -126.04734,-272.2429 c -0.13697,0.34064 -0.27769,0.6771 -0.42773,1.01172 -0.33377,0.15001 -0.67001,0.28878 -1.00977,0.42578 0.21947,-0.26256 0.46886,-0.49465 0.67969,-0.76562 0.26777,-0.20892 0.49828,-0.45451 0.75781,-0.67188 z"
             id="path3719" />
          <path
             style="color:#000000;fill:#1c1c24;stroke-width:10.6043;stroke-linecap:round;stroke-linejoin:round;-inkscape-stroke:none"
             d="m -153.68992,-276.29976 c 0.52183,0.64591 1.05577,1.28305 1.63282,1.88477 0.23331,0.80028 0.51724,1.58096 0.8164,2.35547 -0.80984,-0.44072 -1.53788,-0.97774 -2.30078,-1.4961 -0.0685,-0.92115 -0.1709,-1.82107 -0.14844,-2.74414 z"
             id="path3709" />
          <path
             style="color:#000000;fill:#1c1c24;stroke-width:10.6043;stroke-linecap:round;stroke-linejoin:round;-inkscape-stroke:none"
             d="m -122.04734,-276.30776 c 0.0227,0.92239 -0.0784,1.82168 -0.14648,2.74219 -0.76177,0.51832 -1.48822,1.05521 -2.29688,1.49609 0.29919,-0.77646 0.58533,-1.55903 0.81836,-2.36133 0.5741,-0.59981 1.10571,-1.23335 1.625,-1.87695 z"
             id="path3707" />
          <path
             style="color:#000000;fill:#1c1c24;stroke-width:10.6043;stroke-linecap:round;stroke-linejoin:round;-inkscape-stroke:none"
             d="m -153.28953,-279.52456 c 0.11911,0.32518 0.19714,0.66061 0.32813,0.98242 0.0467,0.33233 0.14334,0.65099 0.20117,0.98047 -0.22686,-0.28931 -0.44898,-0.5793 -0.66406,-0.87695 0.0369,-0.36348 0.0837,-0.72376 0.13476,-1.08594 z"
             id="path3705" />
          <path
             style="color:#000000;fill:#1c1c24;stroke-width:10.6043;stroke-linecap:round;stroke-linejoin:round;-inkscape-stroke:none"
             d="m -177.6196,-279.93495 c 0.8675,2.47727 2.02667,4.8411 3.53711,7.02343 -0.21657,2.64484 -0.0383,5.27086 0.44921,7.84961 -1.67915,-2.07816 -3.14535,-4.328 -4.18164,-6.83398 -0.35999,-2.69831 -0.22121,-5.38984 0.19532,-8.03906 z"
             id="path3699" />
          <path
             style="color:#000000;fill:#1c1c24;stroke-width:10.6043;stroke-linecap:round;stroke-linejoin:round;-inkscape-stroke:none"
             d="m -156.70164,-280.80605 c 0.51958,0.96281 1.10645,1.88345 1.73047,2.78321 -0.0893,1.09016 -0.13792,2.17906 -0.10547,3.27148 -1.01897,-0.80093 -2.11537,-1.49299 -3.01953,-2.43359 0.31167,-1.26793 0.91329,-2.41667 1.39453,-3.6211 z"
             id="path3697" />
          <path
             style="color:#000000;fill:#1c1c24;stroke-width:10.6043;stroke-linecap:round;stroke-linejoin:round;-inkscape-stroke:none"
             d="m -154.72898,-285.06043 c 0.12903,0.82125 0.27159,1.6406 0.4707,2.45117 -0.19834,0.81065 -0.34048,1.6299 -0.46875,2.45117 -0.48178,-0.78772 -0.84401,-1.6176 -1.24609,-2.44922 0.40161,-0.8327 0.76266,-1.66433 1.24414,-2.45312 z"
             id="path3685" />
          <path
             style="color:#000000;fill:#1c1c24;stroke-width:10.6043;stroke-linecap:round;stroke-linejoin:round;-inkscape-stroke:none"
             d="m -159.13718,-286.82034 c 0.4071,1.45021 0.94249,2.84972 1.5625,4.21289 -0.61861,1.36362 -1.15293,2.76439 -1.5586,4.21484 -1.11899,-1.30463 -2.15227,-2.69193 -3.02929,-4.21093 0.87575,-1.5206 1.90727,-2.91052 3.02539,-4.2168 z"
             id="path3681" />
          <path
             style="color:#000000;fill:#1c1c24;stroke-width:10.6043;stroke-linecap:round;stroke-linejoin:round;-inkscape-stroke:none"
             d="m -152.76218,-287.65852 c -0.0582,0.33235 -0.15633,0.65304 -0.20313,0.98828 -0.13029,0.32121 -0.20966,0.65592 -0.32812,0.98047 -0.0517,-0.36341 -0.0974,-0.7251 -0.13477,-1.08984 0.21533,-0.29858 0.43885,-0.5887 0.66602,-0.87891 z"
             id="path3675" />
          <path
             style="color:#000000;fill:#1c1c24;stroke-width:10.6043;stroke-linecap:round;stroke-linejoin:round;-inkscape-stroke:none"
             d="m -179.3032,-288.54147 c 0.0763,2.00457 0.32974,3.98497 0.80664,5.92383 -0.47687,1.93883 -0.73031,3.91927 -0.80664,5.92382 -0.41108,-1.91273 -0.65234,-3.88767 -0.65234,-5.92382 -10e-6,-2.03616 0.24126,-4.0111 0.65234,-5.92383 z"
             id="path3671" />
          <path
             style="color:#000000;fill:#1c1c24;stroke-width:10.6043;stroke-linecap:round;stroke-linejoin:round;-inkscape-stroke:none"
             d="m -173.84421,-290.20182 c 0.40391,2.58271 1.22923,5.11439 2.35547,7.58399 -1.12618,2.46958 -1.9516,5.00129 -2.35547,7.58398 -1.4546,-2.38195 -2.63288,-4.90329 -3.32422,-7.58398 0.69138,-2.6809 1.86947,-5.20188 3.32422,-7.58399 z"
             id="path3663" />
          <path
             style="color:#000000;fill:#1c1c24;stroke-width:10.6043;stroke-linecap:round;stroke-linejoin:round;-inkscape-stroke:none"
             d="m -155.08445,-290.46549 c -0.0314,1.09348 0.0169,2.18429 0.10742,3.27539 -0.62234,0.89947 -1.20849,1.81897 -1.72656,2.78125 -0.4823,-1.2038 -1.08365,-2.35171 -1.39648,-3.61914 0.90332,-0.94163 1.99734,-1.63547 3.01562,-2.4375 z"
             id="path3661" />
          <path
             style="color:#000000;fill:#1c1c24;stroke-width:10.6043;stroke-linecap:round;stroke-linejoin:round;-inkscape-stroke:none"
             d="m -124.4946,-293.16485 c 0.81006,0.44147 1.53775,0.97887 2.30078,1.49805 0.068,0.91987 0.16918,1.81848 0.14648,2.74023 -0.52116,-0.64585 -1.05451,-1.28302 -1.63086,-1.88476 -0.23298,-0.79995 -0.51763,-1.57932 -0.8164,-2.35352 z"
             id="path3657" />
          <path
             style="color:#000000;fill:#1c1c24;stroke-width:10.6043;stroke-linecap:round;stroke-linejoin:round;-inkscape-stroke:none"
             d="m -151.24265,-293.16485 c -0.29824,0.77286 -0.58177,1.5511 -0.81445,2.34961 -0.58024,0.60563 -1.11436,1.24813 -1.63868,1.89844 -0.0234,-0.92317 0.077,-1.8228 0.14454,-2.74414 0.7656,-0.52136 1.49559,-1.06082 2.30859,-1.50391 z"
             id="path3655" />
          <path
             style="color:#000000;fill:#1c1c24;stroke-width:10.6043;stroke-linecap:round;stroke-linejoin:round;-inkscape-stroke:none"
             d="m -127.4907,-294.43061 c 0.33976,0.1369 0.676,0.27586 1.00977,0.42578 0.14953,0.33295 0.28724,0.6689 0.42383,1.00781 -0.26043,-0.21792 -0.49106,-0.46441 -0.75977,-0.67383 -0.20938,-0.26862 -0.45595,-0.49943 -0.67383,-0.75976 z"
             id="path3649" />
          <path
             style="color:#000000;fill:#1c1c24;stroke-width:10.6043;stroke-linecap:round;stroke-linejoin:round;-inkscape-stroke:none"
             d="m -126.89109,-298.0244 c 1.28205,0.18492 2.57575,0.23849 3.82813,0.60156 0.36319,1.25302 0.41473,2.54737 0.59961,3.83008 -0.92973,-0.57373 -1.89623,-1.07769 -2.88477,-1.54493 -0.46716,-0.98839 -0.96936,-1.95713 -1.54297,-2.88671 z"
             id="path3635" />
          <path
             style="color:#000000;fill:#1c1c24;stroke-width:10.6043;stroke-linecap:round;stroke-linejoin:round;-inkscape-stroke:none"
             d="m -133.70164,-298.17284 c 0.29557,0.21327 0.58374,0.43333 0.8711,0.6582 -0.33598,-0.0588 -0.66108,-0.15598 -1,-0.20312 -0.31316,-0.12685 -0.63875,-0.20471 -0.95508,-0.32032 0.36154,-0.0511 0.72114,-0.0978 1.08398,-0.13476 z"
             id="path3631" />
          <path
             style="color:#000000;fill:#1c1c24;stroke-width:10.6043;stroke-linecap:round;stroke-linejoin:round;-inkscape-stroke:none"
             d="m -130.66843,-298.55175 c 0.62265,0.005 1.22833,0.21184 1.84961,0.25781 0.5195,0.76349 1.05634,1.49215 1.49804,2.30274 -0.77484,-0.29901 -1.55484,-0.58524 -2.35546,-0.81836 -0.60203,-0.57657 -1.2386,-1.10953 -1.88477,-1.63086 0.29988,-0.007 0.59265,-0.11354 0.89258,-0.11133 z"
             id="path3627" />
          <path
             style="color:#000000;fill:#1c1c24;stroke-width:10.6043;stroke-linecap:round;stroke-linejoin:round;-inkscape-stroke:none"
             d="m -173.63328,-300.17289 c -0.48748,2.57878 -0.66581,5.20475 -0.44921,7.84961 -1.5104,2.18233 -2.66964,4.54618 -3.53711,7.02344 -0.41678,-2.65134 -0.55632,-5.34451 -0.19532,-8.04493 1.03606,-2.50402 2.50364,-4.75138 4.18164,-6.82812 z"
             id="path3621" />
          <path
             style="color:#000000;fill:#1c1c24;stroke-width:10.6043;stroke-linecap:round;stroke-linejoin:round;-inkscape-stroke:none"
             d="m -137.86765,-300.71781 c 0.8306,0.40102 1.65843,0.76361 2.44531,1.24414 -0.81868,0.1282 -1.63525,0.27091 -2.44336,0.46875 -0.8106,-0.19863 -1.62993,-0.3402 -2.45117,-0.46875 0.78776,-0.48107 1.61763,-0.84275 2.44922,-1.24414 z"
             id="path3619" />
          <path
             style="color:#000000;fill:#1c1c24;stroke-width:10.6043;stroke-linecap:round;stroke-linejoin:round;-inkscape-stroke:none"
             d="m -132.44968,-302.8429 c 0.94101,0.90343 1.63409,1.99733 2.43554,3.01562 -1.09205,-0.032 -2.18172,0.0159 -3.27148,0.10547 -0.89893,-0.62251 -1.81951,-1.20824 -2.78125,-1.72656 1.20311,-0.48112 2.35065,-1.08263 3.61719,-1.39453 z"
             id="path3613" />
          <path
             style="color:#000000;fill:#1c1c24;stroke-width:10.6043;stroke-linecap:round;stroke-linejoin:round;-inkscape-stroke:none"
             d="m -125.72507,-303.65354 c 0.87806,1.51881 1.56535,3.10714 2.13672,4.72852 -1.45896,-0.37343 -2.93758,-0.61024 -4.42774,-0.75586 -0.87136,-1.21816 -1.81793,-2.37988 -2.87109,-3.45704 1.68922,-0.31578 3.40839,-0.51649 5.16211,-0.51562 z"
             id="path3603" />
          <path
             style="color:#000000;fill:#1c1c24;stroke-width:10.6043;stroke-linecap:round;stroke-linejoin:round;-inkscape-stroke:none"
             d="m -104.94578,-308.46409 c 1.31171,1.45046 2.5058,3.04012 3.52344,4.80274 1.01777,1.76281 1.79814,3.59365 2.39844,5.45508 -1.06821,-1.69745 -2.27806,-3.28424 -3.66016,-4.72461 -0.5562,-1.91715 -1.32592,-3.75934 -2.26172,-5.53321 z"
             id="path3595" />
          <path
             style="color:#000000;fill:#1c1c24;stroke-width:10.6043;stroke-linecap:round;stroke-linejoin:round;-inkscape-stroke:none"
             d="m -170.79148,-308.46409 c -0.9354,1.77313 -1.70363,3.61496 -2.25976,5.53125 -1.3821,1.4402 -2.59386,3.02735 -3.66211,4.72461 0.60023,-1.86078 1.37905,-3.69089 2.39648,-5.45312 1.01766,-1.76265 2.21366,-3.35226 3.52539,-4.80274 z"
             id="path3593" />
          <path
             style="color:#000000;fill:#1c1c24;stroke-width:10.6043;stroke-linecap:round;stroke-linejoin:round;-inkscape-stroke:none"
             d="m -115.67234,-315.70242 c 2.50281,0.96393 4.90355,2.18852 7.06055,3.84961 1.65185,2.15002 2.866,4.54435 3.82617,7.03711 -1.9891,-1.71087 -4.17417,-3.17802 -6.57227,-4.3125 -1.13489,-2.39937 -2.60261,-4.58425 -4.31445,-6.57422 z"
             id="path3577" />
          <path
             style="color:#000000;fill:#1c1c24;stroke-width:10.6043;stroke-linecap:round;stroke-linejoin:round;-inkscape-stroke:none"
             d="m -123.77976,-317.63601 c 1.88608,0.13305 3.74528,0.47773 5.56055,0.98242 1.97611,1.93916 3.57057,4.221 4.90625,6.67187 -2.43911,-0.94185 -5.04562,-1.49248 -7.74805,-1.75195 -1.5751,-2.20907 -3.35289,-4.19147 -5.38672,-5.83203 0.89033,-0.0219 1.78364,-0.1327 2.66797,-0.0703 z"
             id="path3569" />
          <path
             style="color:#000000;fill:#1c1c24;stroke-width:10.6043;stroke-linecap:round;stroke-linejoin:round;-inkscape-stroke:none"
             d="m -122.27781,-321.46218 c 1.86078,0.60023 3.68894,1.37905 5.45117,2.39648 1.76263,1.01765 3.35228,2.21368 4.80274,3.52539 -1.77251,-0.93505 -3.61371,-1.70371 -5.5293,-2.25976 -1.43992,-1.38198 -3.02768,-2.59387 -4.72461,-3.66211 z"
             id="path3565" />
          <path
             style="color:#000000;fill:#1c1c24;stroke-width:10.6043;stroke-linecap:round;stroke-linejoin:round;-inkscape-stroke:none"
             d="m -132.81882,-322.76492 c 1.87278,-0.13212 3.764,-0.0565 5.64843,0.19336 2.51351,1.03701 4.76987,2.50605 6.85352,4.18945 -2.57886,-0.48733 -5.2047,-0.66795 -7.84961,-0.45117 -2.18215,-1.50997 -4.54453,-2.66793 -7.02148,-3.53515 0.79197,-0.12453 1.56744,-0.33993 2.36914,-0.39649 z"
             id="path3559" />
          <path
             style="color:#000000;fill:#1c1c24;stroke-width:10.6043;stroke-linecap:round;stroke-linejoin:round;-inkscape-stroke:none"
             d="m -137.8696,-324.70437 c 2.03615,-1e-5 4.01109,0.24126 5.92382,0.65234 -2.00345,0.0764 -3.98407,0.33012 -5.92187,0.80664 -1.93903,-0.47695 -3.92103,-0.73031 -5.92578,-0.80664 1.91273,-0.41108 3.88767,-0.65234 5.92383,-0.65234 z"
             id="path3555" />
        </g>
      </g>
    </g>
  </g>
</svg>
