<?xml version="1.0" encoding="UTF-8" standalone="no"?>
<!-- Created with Inkscape (http://www.inkscape.org/) -->

<svg
   width="7.9375mm"
   height="7.9375mm"
   viewBox="0 0 7.9375 7.9375"
   version="1.1"
   id="svg36517"
   inkscape:version="1.1.1 (3bf5ae0d25, 2021-09-20)"
   sodipodi:docname="waystone.svg"
   xmlns:inkscape="http://www.inkscape.org/namespaces/inkscape"
   xmlns:sodipodi="http://sodipodi.sourceforge.net/DTD/sodipodi-0.dtd"
   xmlns="http://www.w3.org/2000/svg"
   xmlns:svg="http://www.w3.org/2000/svg">
  <sodipodi:namedview
     id="namedview36519"
     pagecolor="#505050"
     bordercolor="#ffffff"
     borderopacity="1"
     inkscape:pageshadow="0"
     inkscape:pageopacity="0"
     inkscape:pagecheckerboard="1"
     inkscape:document-units="mm"
     showgrid="false"
     inkscape:snap-intersection-paths="true"
     inkscape:snap-smooth-nodes="true"
     inkscape:object-paths="true"
     inkscape:snap-global="false"
     fit-margin-top="0"
     fit-margin-left="0"
     fit-margin-right="0"
     fit-margin-bottom="0"
     inkscape:zoom="4"
     inkscape:cx="-7.875"
     inkscape:cy="-15.875"
     inkscape:window-width="1920"
     inkscape:window-height="1017"
     inkscape:window-x="-8"
     inkscape:window-y="-8"
     inkscape:window-maximized="1"
     inkscape:current-layer="layer1" />
  <defs
     id="defs36514" />
  <g
     inkscape:label="Layer 1"
     inkscape:groupmode="layer"
     id="layer1"
     transform="translate(-42.04518,-97.151197)">
    <g
       id="g38012"
       transform="matrix(0.37597014,0,0,0.37597014,26.237448,60.625248)"
       style="stroke-width:2.65979">
      <circle
         style="fill:#0e0e0e;fill-opacity:1;stroke-width:2.56669;stroke-linecap:round;stroke-linejoin:bevel"
         id="path36600"
         cx="52.601204"
         cy="107.70722"
         r="10.556025" />
      <path
         id="path37050"
         style="color:#000000;fill:#80ffe6;stroke-width:2.65979;stroke-linecap:round;stroke-linejoin:bevel;-inkscape-stroke:none"
         d="m 62.131254,107.32274 h -1.004588 c -0.06056,0.0552 -0.18487,0.13965 -0.37207,0.22531 -0.386072,0.17667 -1.005293,0.3578 -1.781286,0.50798 -1.551993,0.30038 -3.736848,0.49196 -6.148462,0.49196 -2.411616,0 -4.596474,-0.19158 -6.148464,-0.49196 -0.775994,-0.15018 -1.397281,-0.33131 -1.783353,-0.50798 -0.1872,-0.0857 -0.311512,-0.17012 -0.37207,-0.22531 h -1.004588 c 3.73e-4,0.28587 0.154895,0.52674 0.331761,0.69402 0.17708,0.16748 0.391408,0.29224 0.644921,0.40824 0.507027,0.23201 1.178933,0.41938 1.99988,0.57826 1.64189,0.31777 3.86983,0.50953 6.331913,0.50953 2.462083,0 4.687956,-0.19176 6.329844,-0.50953 0.820946,-0.15888 1.494922,-0.34625 2.001946,-0.57826 0.253513,-0.116 0.467841,-0.24076 0.644922,-0.40824 0.176866,-0.16728 0.329324,-0.40815 0.329694,-0.69402 z" />
      <path
         id="path36910"
         style="fill:#aaffee;stroke:none;stroke-width:2.65978px;stroke-linecap:butt;stroke-linejoin:miter;stroke-opacity:1"
         d="m 194.95898,383.27539 -4.40625,24.14453 -9.2207,35.51953 a 39.896787,39.896787 0 0 0 15.49219,3.96485 l 4.04101,-48.44336 z"
         transform="scale(0.26458333)" />
      <path
         id="path36741"
         style="fill:#ffffff;stroke:none;stroke-width:2.65978px;stroke-linecap:butt;stroke-linejoin:miter;stroke-opacity:1"
         d="m 194.95898,383.27539 v 63.49414 a 39.896787,39.896787 0 0 0 3.84961,0.20899 39.896787,39.896787 0 0 0 17.41602,-4.00586 l -5.93555,-44.82618 z"
         transform="scale(0.26458333)" />
      <path
         id="path37287"
         style="color:#000000;fill:#80ffe6;stroke-width:2.65979;stroke-linecap:round;stroke-linejoin:bevel;-inkscape-stroke:none"
         d="m 52.824848,105.13218 c -2.462083,0 -4.690023,0.18969 -6.331913,0.50746 -0.820947,0.15889 -1.492853,0.34626 -1.99988,0.57826 -0.253513,0.11601 -0.467841,0.24283 -0.644921,0.41031 -0.177081,0.16749 -0.331764,0.40718 -0.331761,0.6935 0,3.5e-4 -3e-6,6.9e-4 0,0.001 h 1.004588 c -2.99e-4,-2.7e-4 -7.38e-4,-7.6e-4 -10e-4,-0.001 0.06022,-0.0552 0.184978,-0.14077 0.373104,-0.22686 0.386075,-0.17666 1.007359,-0.35727 1.783353,-0.50746 1.55199,-0.30037 3.736848,-0.49041 6.148464,-0.49041 2.411614,0 4.596469,0.19004 6.148462,0.49041 0.775993,0.15019 1.395214,0.3308 1.781286,0.50746 0.188126,0.0861 0.31288,0.1717 0.373104,0.22686 -2.99e-4,2.7e-4 -7.35e-4,7.6e-4 -10e-4,0.001 h 1.004588 c 3e-6,-3.4e-4 0,-6.8e-4 0,-0.001 0,-0.28632 -0.152614,-0.52601 -0.329694,-0.6935 -0.177081,-0.16748 -0.391409,-0.2943 -0.644922,-0.41031 -0.507024,-0.232 -1.181,-0.41937 -2.001946,-0.57826 -1.641888,-0.31777 -3.867761,-0.50746 -6.329844,-0.50746 z" />
    </g>
  </g>
</svg>
